#N canvas 0 23 1399 551 10;
#X obj 205 158 s \$0-fade_0_r;
#X obj 295 158 s \$0-fade_1_r;
#X obj 385 158 s \$0-fade_2_r;
#X obj 476 158 s \$0-fade_3_r;
#X obj 566 158 s \$0-fade_4_r;
#X obj 656 158 s \$0-fade_5_r;
#X obj 747 158 s \$0-fade_6_r;
#X obj 837 158 s \$0-fade_7_r;
#X obj 927 158 s \$0-fade_8_r;
#X obj 250 188 s \$0-knob_0_r;
#X obj 340 188 s \$0-knob_1_r;
#X obj 430 188 s \$0-knob_2_r;
#X obj 521 188 s \$0-knob_3_r;
#X obj 611 188 s \$0-knob_4_r;
#X obj 701 188 s \$0-knob_5_r;
#X obj 792 188 s \$0-knob_6_r;
#X obj 882 188 s \$0-knob_7_r;
#X obj 972 188 s \$0-knob_8_r;
#X obj 125 321 s \$0-mute_0_r;
#X obj 215 321 s \$0-mute_1_r;
#X obj 305 321 s \$0-mute_2_r;
#X obj 396 321 s \$0-mute_3_r;
#X obj 486 321 s \$0-mute_4_r;
#X obj 576 321 s \$0-mute_5_r;
#X obj 667 321 s \$0-mute_6_r;
#X obj 757 321 s \$0-mute_7_r;
#X obj 847 321 s \$0-mute_8_r;
#X obj 170 344 s \$0-solo_0_r;
#X obj 260 344 s \$0-solo_1_r;
#X obj 350 344 s \$0-solo_2_r;
#X obj 441 344 s \$0-solo_3_r;
#X obj 531 344 s \$0-solo_4_r;
#X obj 621 344 s \$0-solo_5_r;
#X obj 712 344 s \$0-solo_6_r;
#X obj 802 344 s \$0-solo_7_r;
#X obj 892 344 s \$0-solo_8_r;
#X obj 205 126 route 9 0 10 1 11 2 12 3 13 4 14 5 15 6 16 7 17 8,
f 136;
#X obj 125 82 inlet;
#X obj 205 82 inlet;
#X obj 125 233 route 9 0 10 1 11 2 12 3 13 4 14 5 15 6 16 7 17 8,
f 136;
#X obj 125 255 127, f 6;
#X obj 125 277 t b f, f 6;
#X obj 125 299 spigot;
#X obj 170 255 127, f 6;
#X obj 170 277 t b f, f 6;
#X obj 170 299 spigot;
#X obj 215 255 127, f 6;
#X obj 215 277 t b f, f 6;
#X obj 215 299 spigot;
#X obj 260 255 127, f 6;
#X obj 260 277 t b f, f 6;
#X obj 260 299 spigot;
#X obj 305 255 127, f 6;
#X obj 305 277 t b f, f 6;
#X obj 305 299 spigot;
#X obj 350 255 127, f 6;
#X obj 350 277 t b f, f 6;
#X obj 350 299 spigot;
#X obj 396 255 127, f 6;
#X obj 396 277 t b f, f 6;
#X obj 396 299 spigot;
#X obj 441 255 127, f 6;
#X obj 441 277 t b f, f 6;
#X obj 441 299 spigot;
#X obj 486 255 127, f 6;
#X obj 486 277 t b f, f 6;
#X obj 486 299 spigot;
#X obj 531 255 127, f 6;
#X obj 531 277 t b f, f 6;
#X obj 531 299 spigot;
#X obj 576 255 127, f 6;
#X obj 576 277 t b f, f 6;
#X obj 576 299 spigot;
#X obj 621 255 127, f 6;
#X obj 621 277 t b f, f 6;
#X obj 621 299 spigot;
#X obj 667 255 127, f 6;
#X obj 667 277 t b f, f 6;
#X obj 667 299 spigot;
#X obj 712 255 127, f 6;
#X obj 712 277 t b f, f 6;
#X obj 712 299 spigot;
#X obj 757 255 127, f 6;
#X obj 757 277 t b f, f 6;
#X obj 757 299 spigot;
#X obj 802 255 127, f 6;
#X obj 802 277 t b f, f 6;
#X obj 802 299 spigot;
#X obj 847 255 127, f 6;
#X obj 847 277 t b f, f 6;
#X obj 847 299 spigot;
#X obj 892 255 127, f 6;
#X obj 892 277 t b f, f 6;
#X obj 892 299 spigot;
#X text 107 63 korg buttons;
#X text 187 63 korg pots;
#X connect 36 0 0 0;
#X connect 36 1 9 0;
#X connect 36 2 1 0;
#X connect 36 3 10 0;
#X connect 36 4 2 0;
#X connect 36 5 11 0;
#X connect 36 6 3 0;
#X connect 36 7 12 0;
#X connect 36 8 4 0;
#X connect 36 9 13 0;
#X connect 36 10 5 0;
#X connect 36 11 14 0;
#X connect 36 12 6 0;
#X connect 36 13 15 0;
#X connect 36 14 7 0;
#X connect 36 15 16 0;
#X connect 36 16 8 0;
#X connect 36 17 17 0;
#X connect 37 0 39 0;
#X connect 38 0 36 0;
#X connect 39 0 40 0;
#X connect 39 1 43 0;
#X connect 39 2 46 0;
#X connect 39 3 49 0;
#X connect 39 4 52 0;
#X connect 39 5 55 0;
#X connect 39 6 58 0;
#X connect 39 7 61 0;
#X connect 39 8 64 0;
#X connect 39 9 67 0;
#X connect 39 10 70 0;
#X connect 39 11 73 0;
#X connect 39 12 76 0;
#X connect 39 13 79 0;
#X connect 39 14 82 0;
#X connect 39 15 85 0;
#X connect 39 16 88 0;
#X connect 39 17 91 0;
#X connect 40 0 41 0;
#X connect 41 0 42 0;
#X connect 41 1 42 1;
#X connect 42 0 18 0;
#X connect 43 0 44 0;
#X connect 44 0 45 0;
#X connect 44 1 45 1;
#X connect 45 0 27 0;
#X connect 46 0 47 0;
#X connect 47 0 48 0;
#X connect 47 1 48 1;
#X connect 48 0 19 0;
#X connect 49 0 50 0;
#X connect 50 0 51 0;
#X connect 50 1 51 1;
#X connect 51 0 28 0;
#X connect 52 0 53 0;
#X connect 53 0 54 0;
#X connect 53 1 54 1;
#X connect 54 0 20 0;
#X connect 55 0 56 0;
#X connect 56 0 57 0;
#X connect 56 1 57 1;
#X connect 57 0 29 0;
#X connect 58 0 59 0;
#X connect 59 0 60 0;
#X connect 59 1 60 1;
#X connect 60 0 21 0;
#X connect 61 0 62 0;
#X connect 62 0 63 0;
#X connect 62 1 63 1;
#X connect 63 0 30 0;
#X connect 64 0 65 0;
#X connect 65 0 66 0;
#X connect 65 1 66 1;
#X connect 66 0 22 0;
#X connect 67 0 68 0;
#X connect 68 0 69 0;
#X connect 68 1 69 1;
#X connect 69 0 31 0;
#X connect 70 0 71 0;
#X connect 71 0 72 0;
#X connect 71 1 72 1;
#X connect 72 0 23 0;
#X connect 73 0 74 0;
#X connect 74 0 75 0;
#X connect 74 1 75 1;
#X connect 75 0 32 0;
#X connect 76 0 77 0;
#X connect 77 0 78 0;
#X connect 77 1 78 1;
#X connect 78 0 24 0;
#X connect 79 0 80 0;
#X connect 80 0 81 0;
#X connect 80 1 81 1;
#X connect 81 0 33 0;
#X connect 82 0 83 0;
#X connect 83 0 84 0;
#X connect 83 1 84 1;
#X connect 84 0 25 0;
#X connect 85 0 86 0;
#X connect 86 0 87 0;
#X connect 86 1 87 1;
#X connect 87 0 34 0;
#X connect 88 0 89 0;
#X connect 89 0 90 0;
#X connect 89 1 90 1;
#X connect 90 0 26 0;
#X connect 91 0 92 0;
#X connect 92 0 93 0;
#X connect 92 1 93 1;
#X connect 93 0 35 0;
