#N canvas 13 23 1393 751 10;
#X obj 21 207 vsl 50 120 0 127 0 0 \$0-fade_0_s \$0-fade_0_r empty
0 -9 0 10 -262144 -1 -1 5997 1;
#X obj 71 207 vsl 50 120 0 127 0 0 \$0-fade_1_s \$0-fade_1_r empty
0 -9 0 10 -262144 -1 -1 5997 1;
#X obj 121 207 vsl 50 120 0 127 0 0 \$0-fade_2_s \$0-fade_2_r empty
0 -9 0 10 -262144 -1 -1 5997 1;
#X obj 171 207 vsl 50 120 0 127 0 0 \$0-fade_3_s \$0-fade_3_r empty
0 -9 0 10 -262144 -1 -1 5997 1;
#X obj 221 207 vsl 50 120 0 127 0 0 \$0-fade_4_s \$0-fade_4_r empty
0 -9 0 10 -262144 -1 -1 5997 1;
#X obj 271 207 vsl 50 120 0 127 0 0 \$0-fade_5_s \$0-fade_5_r empty
0 -9 0 10 -262144 -1 -1 5997 1;
#X obj 321 207 vsl 50 120 0 127 0 0 \$0-fade_6_s \$0-fade_6_r empty
0 -9 0 10 -262144 -1 -1 5997 1;
#X obj 371 207 vsl 50 120 0 127 0 0 \$0-fade_7_s \$0-fade_7_r empty
0 -9 0 10 -262144 -1 -1 5997 1;
#X obj 421 207 vsl 50 120 0 127 0 0 \$0-fade_8_s \$0-fade_8_r empty
0 -9 0 10 -262144 -1 -1 5997 1;
#X obj 571 35 inlet~;
#X floatatom 30 367 5 0 127 0 - #0-knob_0_r #0-knob_0_s, f 5;
#X floatatom 80 367 5 0 127 0 - #0-knob_1_r #0-knob_1_s, f 5;
#X floatatom 130 367 5 0 127 0 - #0-knob_2_r #0-knob_2_s, f 5;
#X floatatom 180 367 5 0 127 0 - #0-knob_3_r #0-knob_3_s, f 5;
#X floatatom 230 367 5 0 127 0 - #0-knob_4_r #0-knob_4_s, f 5;
#X floatatom 280 367 5 0 127 0 - #0-knob_5_r #0-knob_5_s, f 5;
#X floatatom 330 367 5 0 127 0 - #0-knob_6_r #0-knob_6_s, f 5;
#X floatatom 380 367 5 0 127 0 - #0-knob_7_r #0-knob_7_s, f 5;
#X floatatom 430 367 5 0 127 0 - #0-knob_8_r #0-knob_8_s, f 5;
#N canvas 0 22 450 278 (subpatch) 0;
#X array \$0-monitor 9 float 2;
#X coords 0 100 9 0 450 80 1 0 0;
#X restore 21 124 graph;
#N canvas 757 238 450 300 writeMonitor 0;
#X obj 103 79 tabwrite \$0-monitor;
#X obj 103 57 env~ 2048 1024;
#X obj 103 35 inlet~;
#X msg 214 57 0;
#X obj 214 35 loadbang;
#X connect 1 0 0 0;
#X connect 2 0 1 0;
#X connect 3 0 0 1;
#X connect 4 0 3 0;
#X restore 571 57 pd writeMonitor;
#X obj 631 35 inlet~;
#N canvas 757 238 450 300 writeMonitor 0;
#X obj 103 79 tabwrite \$0-monitor;
#X obj 103 57 env~ 2048 1024;
#X obj 103 35 inlet~;
#X obj 214 35 loadbang;
#X msg 214 57 1;
#X connect 1 0 0 0;
#X connect 2 0 1 0;
#X connect 3 0 4 0;
#X connect 4 0 0 1;
#X restore 631 77 pd writeMonitor;
#X obj 691 35 inlet~;
#N canvas 757 238 450 300 writeMonitor 0;
#X obj 103 79 tabwrite \$0-monitor;
#X obj 103 57 env~ 2048 1024;
#X obj 103 35 inlet~;
#X obj 214 35 loadbang;
#X msg 214 57 2;
#X connect 1 0 0 0;
#X connect 2 0 1 0;
#X connect 3 0 4 0;
#X connect 4 0 0 1;
#X restore 691 57 pd writeMonitor;
#X obj 751 35 inlet~;
#N canvas 757 238 450 300 writeMonitor 0;
#X obj 103 79 tabwrite \$0-monitor;
#X obj 103 57 env~ 2048 1024;
#X obj 103 35 inlet~;
#X obj 214 35 loadbang;
#X msg 214 57 3;
#X connect 1 0 0 0;
#X connect 2 0 1 0;
#X connect 3 0 4 0;
#X connect 4 0 0 1;
#X restore 751 77 pd writeMonitor;
#X obj 811 35 inlet~;
#N canvas 757 238 450 300 writeMonitor 0;
#X obj 103 79 tabwrite \$0-monitor;
#X obj 103 57 env~ 2048 1024;
#X obj 103 35 inlet~;
#X obj 214 35 loadbang;
#X msg 214 57 4;
#X connect 1 0 0 0;
#X connect 2 0 1 0;
#X connect 3 0 4 0;
#X connect 4 0 0 1;
#X restore 811 57 pd writeMonitor;
#X obj 871 35 inlet~;
#N canvas 757 238 450 300 writeMonitor 0;
#X obj 103 79 tabwrite \$0-monitor;
#X obj 103 57 env~ 2048 1024;
#X obj 103 35 inlet~;
#X obj 214 35 loadbang;
#X msg 214 57 5;
#X connect 1 0 0 0;
#X connect 2 0 1 0;
#X connect 3 0 4 0;
#X connect 4 0 0 1;
#X restore 871 77 pd writeMonitor;
#X obj 931 35 inlet~;
#N canvas 757 238 450 300 writeMonitor 0;
#X obj 103 79 tabwrite \$0-monitor;
#X obj 103 57 env~ 2048 1024;
#X obj 103 35 inlet~;
#X obj 214 35 loadbang;
#X msg 214 57 6;
#X connect 1 0 0 0;
#X connect 2 0 1 0;
#X connect 3 0 4 0;
#X connect 4 0 0 1;
#X restore 931 57 pd writeMonitor;
#X obj 991 35 inlet~;
#N canvas 757 238 450 300 writeMonitor 0;
#X obj 103 79 tabwrite \$0-monitor;
#X obj 103 57 env~ 2048 1024;
#X obj 103 35 inlet~;
#X obj 214 35 loadbang;
#X msg 214 57 7;
#X connect 1 0 0 0;
#X connect 2 0 1 0;
#X connect 3 0 4 0;
#X connect 4 0 0 1;
#X restore 991 77 pd writeMonitor;
#X obj 1051 35 inlet~;
#N canvas 757 238 450 300 writeMonitor 0;
#X obj 103 79 tabwrite \$0-monitor;
#X obj 103 57 env~ 2048 1024;
#X obj 103 35 inlet~;
#X obj 214 35 loadbang;
#X msg 214 57 8;
#X connect 1 0 0 0;
#X connect 2 0 1 0;
#X connect 3 0 4 0;
#X connect 4 0 0 1;
#X restore 1051 57 pd writeMonitor;
#N canvas 662 181 450 300 panning 0;
#X obj 43 151 inlet~;
#X obj 194 36 r \$0-knob_0_s;
#X obj 194 58 / 127;
#X obj 104 75 expr 1 - $f1;
#X obj 83 208 *~, f 4;
#X obj 173 208 *~, f 4;
#X obj 83 230 outlet~;
#X obj 173 230 outlet~;
#X obj 104 110 pow 2;
#X obj 194 110 pow 2;
#X msg 104 131 \$1 20;
#X obj 104 152 line~;
#X msg 194 131 \$1 20;
#X obj 194 152 line~;
#X connect 0 0 4 0;
#X connect 0 0 5 0;
#X connect 1 0 2 0;
#X connect 2 0 3 0;
#X connect 2 0 9 0;
#X connect 3 0 8 0;
#X connect 4 0 6 0;
#X connect 5 0 7 0;
#X connect 8 0 10 0;
#X connect 9 0 12 0;
#X connect 10 0 11 0;
#X connect 11 0 4 1;
#X connect 12 0 13 0;
#X connect 13 0 5 1;
#X restore 571 214 pd panning;
#N canvas 57 23 450 300 mixFader 0;
#X obj 119 35 inlet~;
#X obj 119 227 *~;
#X obj 119 249 outlet~;
#X obj 134 81 / 127;
#X obj 134 103 pow 4;
#X obj 141 124 r \$0-channel_0_active;
#X obj 134 59 r \$0-fade_0_s;
#X obj 134 205 line~;
#X msg 134 184 \$1 20;
#X obj 141 145 t b f;
#X obj 134 164 *, f 4;
#X connect 0 0 1 0;
#X connect 1 0 2 0;
#X connect 3 0 4 0;
#X connect 4 0 10 0;
#X connect 5 0 9 0;
#X connect 6 0 3 0;
#X connect 7 0 1 1;
#X connect 8 0 7 0;
#X connect 9 0 10 0;
#X connect 9 1 10 1;
#X connect 10 0 8 0;
#X restore 571 164 pd mixFader;
#N canvas 662 181 450 300 panning 0;
#X obj 43 141 inlet~;
#X obj 194 58 / 127;
#X obj 104 75 expr 1 - $f1;
#X obj 83 208 *~, f 4;
#X obj 173 208 *~, f 4;
#X obj 83 230 outlet~;
#X obj 173 230 outlet~;
#X obj 194 36 r \$0-knob_1_s;
#X obj 104 110 pow 2;
#X obj 194 110 pow 2;
#X msg 104 131 \$1 20;
#X obj 104 152 line~;
#X msg 194 131 \$1 20;
#X obj 194 152 line~;
#X connect 0 0 3 0;
#X connect 0 0 4 0;
#X connect 1 0 2 0;
#X connect 1 0 9 0;
#X connect 2 0 8 0;
#X connect 3 0 5 0;
#X connect 4 0 6 0;
#X connect 7 0 1 0;
#X connect 8 0 10 0;
#X connect 9 0 12 0;
#X connect 10 0 11 0;
#X connect 11 0 3 1;
#X connect 12 0 13 0;
#X connect 13 0 4 1;
#X restore 631 234 pd panning;
#N canvas 0 23 450 300 mixFader 0;
#X obj 129 35 inlet~;
#X obj 129 227 *~;
#X obj 129 249 outlet~;
#X obj 144 81 / 127;
#X obj 144 103 pow 4;
#X obj 144 205 line~;
#X msg 144 184 \$1 20;
#X obj 151 145 t b f;
#X obj 144 164 *, f 4;
#X obj 144 59 r \$0-fade_1_s;
#X obj 151 124 r \$0-channel_1_active;
#X connect 0 0 1 0;
#X connect 1 0 2 0;
#X connect 3 0 4 0;
#X connect 4 0 8 0;
#X connect 5 0 1 1;
#X connect 6 0 5 0;
#X connect 7 0 8 0;
#X connect 7 1 8 1;
#X connect 8 0 6 0;
#X connect 9 0 3 0;
#X connect 10 0 7 0;
#X restore 631 144 pd mixFader;
#N canvas 662 181 450 300 panning 0;
#X obj 43 141 inlet~;
#X obj 194 58 / 127;
#X obj 104 75 expr 1 - $f1;
#X obj 83 208 *~, f 4;
#X obj 173 208 *~, f 4;
#X obj 83 230 outlet~;
#X obj 173 230 outlet~;
#X obj 194 36 r \$0-knob_2_s;
#X obj 104 110 pow 2;
#X obj 194 110 pow 2;
#X msg 104 131 \$1 20;
#X obj 104 152 line~;
#X msg 194 131 \$1 20;
#X obj 194 152 line~;
#X connect 0 0 3 0;
#X connect 0 0 4 0;
#X connect 1 0 2 0;
#X connect 1 0 9 0;
#X connect 2 0 8 0;
#X connect 3 0 5 0;
#X connect 4 0 6 0;
#X connect 7 0 1 0;
#X connect 8 0 10 0;
#X connect 9 0 12 0;
#X connect 10 0 11 0;
#X connect 11 0 3 1;
#X connect 12 0 13 0;
#X connect 13 0 4 1;
#X restore 691 214 pd panning;
#N canvas 0 23 450 300 mixFader 0;
#X obj 119 35 inlet~;
#X obj 119 227 *~;
#X obj 119 249 outlet~;
#X obj 134 81 / 127;
#X obj 134 103 pow 4;
#X obj 134 205 line~;
#X msg 134 184 \$1 20;
#X obj 141 145 t b f;
#X obj 134 164 *, f 4;
#X obj 134 59 r \$0-fade_2_s;
#X obj 141 124 r \$0-channel_2_active;
#X connect 0 0 1 0;
#X connect 1 0 2 0;
#X connect 3 0 4 0;
#X connect 4 0 8 0;
#X connect 5 0 1 1;
#X connect 6 0 5 0;
#X connect 7 0 8 0;
#X connect 7 1 8 1;
#X connect 8 0 6 0;
#X connect 9 0 3 0;
#X connect 10 0 7 0;
#X restore 691 164 pd mixFader;
#N canvas 662 181 450 300 panning 0;
#X obj 43 141 inlet~;
#X obj 194 58 / 127;
#X obj 104 75 expr 1 - $f1;
#X obj 83 208 *~, f 4;
#X obj 173 208 *~, f 4;
#X obj 83 230 outlet~;
#X obj 173 230 outlet~;
#X obj 194 36 r \$0-knob_5_s;
#X obj 104 110 pow 2;
#X obj 194 110 pow 2;
#X msg 104 131 \$1 20;
#X obj 104 152 line~;
#X msg 194 131 \$1 20;
#X obj 194 152 line~;
#X connect 0 0 3 0;
#X connect 0 0 4 0;
#X connect 1 0 2 0;
#X connect 1 0 9 0;
#X connect 2 0 8 0;
#X connect 3 0 5 0;
#X connect 4 0 6 0;
#X connect 7 0 1 0;
#X connect 8 0 10 0;
#X connect 9 0 12 0;
#X connect 10 0 11 0;
#X connect 11 0 3 1;
#X connect 12 0 13 0;
#X connect 13 0 4 1;
#X restore 871 234 pd panning;
#N canvas 662 181 450 300 panning 0;
#X obj 43 141 inlet~;
#X obj 194 58 / 127;
#X obj 104 75 expr 1 - $f1;
#X obj 83 198 *~, f 4;
#X obj 173 198 *~, f 4;
#X obj 83 220 outlet~;
#X obj 173 220 outlet~;
#X obj 194 36 r \$0-knob_6_s;
#X obj 104 110 pow 2;
#X obj 194 110 pow 2;
#X msg 104 131 \$1 20;
#X obj 104 152 line~;
#X msg 194 131 \$1 20;
#X obj 194 152 line~;
#X connect 0 0 3 0;
#X connect 0 0 4 0;
#X connect 1 0 2 0;
#X connect 1 0 9 0;
#X connect 2 0 8 0;
#X connect 3 0 5 0;
#X connect 4 0 6 0;
#X connect 7 0 1 0;
#X connect 8 0 10 0;
#X connect 9 0 12 0;
#X connect 10 0 11 0;
#X connect 11 0 3 1;
#X connect 12 0 13 0;
#X connect 13 0 4 1;
#X restore 931 214 pd panning;
#N canvas 662 181 450 300 panning 0;
#X obj 43 141 inlet~;
#X obj 194 58 / 127;
#X obj 104 75 expr 1 - $f1;
#X obj 83 198 *~, f 4;
#X obj 173 198 *~, f 4;
#X obj 83 220 outlet~;
#X obj 173 220 outlet~;
#X obj 194 36 r \$0-knob_7_s;
#X obj 104 110 pow 2;
#X obj 194 110 pow 2;
#X msg 104 131 \$1 20;
#X obj 104 152 line~;
#X msg 194 131 \$1 20;
#X obj 194 152 line~;
#X connect 0 0 3 0;
#X connect 0 0 4 0;
#X connect 1 0 2 0;
#X connect 1 0 9 0;
#X connect 2 0 8 0;
#X connect 3 0 5 0;
#X connect 4 0 6 0;
#X connect 7 0 1 0;
#X connect 8 0 10 0;
#X connect 9 0 12 0;
#X connect 10 0 11 0;
#X connect 11 0 3 1;
#X connect 12 0 13 0;
#X connect 13 0 4 1;
#X restore 991 234 pd panning;
#N canvas 662 181 450 300 panning 0;
#X obj 43 141 inlet~;
#X obj 194 58 / 127;
#X obj 104 75 expr 1 - $f1;
#X obj 83 208 *~, f 4;
#X obj 173 208 *~, f 4;
#X obj 83 230 outlet~;
#X obj 173 230 outlet~;
#X obj 194 36 r \$0-knob_3_s;
#X obj 104 110 pow 2;
#X obj 194 110 pow 2;
#X msg 104 131 \$1 20;
#X obj 104 152 line~;
#X msg 194 131 \$1 20;
#X obj 194 152 line~;
#X connect 0 0 3 0;
#X connect 0 0 4 0;
#X connect 1 0 2 0;
#X connect 1 0 9 0;
#X connect 2 0 8 0;
#X connect 3 0 5 0;
#X connect 4 0 6 0;
#X connect 7 0 1 0;
#X connect 8 0 10 0;
#X connect 9 0 12 0;
#X connect 10 0 11 0;
#X connect 11 0 3 1;
#X connect 12 0 13 0;
#X connect 13 0 4 1;
#X restore 751 234 pd panning;
#N canvas 0 23 450 300 mixFader 0;
#X obj 119 35 inlet~;
#X obj 119 249 outlet~;
#X obj 119 227 *~;
#X obj 134 81 / 127;
#X obj 134 103 pow 4;
#X obj 134 205 line~;
#X msg 134 184 \$1 20;
#X obj 141 145 t b f;
#X obj 134 164 *, f 4;
#X obj 134 59 r \$0-fade_3_s;
#X obj 141 124 r \$0-channel_3_active;
#X connect 0 0 2 0;
#X connect 2 0 1 0;
#X connect 3 0 4 0;
#X connect 4 0 8 0;
#X connect 5 0 2 1;
#X connect 6 0 5 0;
#X connect 7 0 8 0;
#X connect 7 1 8 1;
#X connect 8 0 6 0;
#X connect 9 0 3 0;
#X connect 10 0 7 0;
#X restore 751 144 pd mixFader;
#N canvas 662 181 450 300 panning 0;
#X obj 43 141 inlet~;
#X obj 194 58 / 127;
#X obj 104 75 expr 1 - $f1;
#X obj 83 198 *~, f 4;
#X obj 173 198 *~, f 4;
#X obj 83 220 outlet~;
#X obj 173 220 outlet~;
#X obj 194 36 r \$0-knob_4_s;
#X obj 104 110 pow 2;
#X obj 194 110 pow 2;
#X msg 104 131 \$1 20;
#X obj 104 152 line~;
#X msg 194 131 \$1 20;
#X obj 194 152 line~;
#X connect 0 0 3 0;
#X connect 0 0 4 0;
#X connect 1 0 2 0;
#X connect 1 0 9 0;
#X connect 2 0 8 0;
#X connect 3 0 5 0;
#X connect 4 0 6 0;
#X connect 7 0 1 0;
#X connect 8 0 10 0;
#X connect 9 0 12 0;
#X connect 10 0 11 0;
#X connect 11 0 3 1;
#X connect 12 0 13 0;
#X connect 13 0 4 1;
#X restore 811 214 pd panning;
#N canvas 662 181 450 300 panning 0;
#X obj 43 141 inlet~;
#X obj 194 58 / 127;
#X obj 104 75 expr 1 - $f1;
#X obj 83 188 *~, f 4;
#X obj 173 188 *~, f 4;
#X obj 83 210 outlet~;
#X obj 173 210 outlet~;
#X obj 194 36 r \$0-knob_8_s;
#X obj 104 110 pow 2;
#X obj 194 110 pow 2;
#X msg 104 131 \$1 20;
#X obj 104 152 line~;
#X msg 194 131 \$1 20;
#X obj 194 152 line~;
#X connect 0 0 3 0;
#X connect 0 0 4 0;
#X connect 1 0 2 0;
#X connect 1 0 9 0;
#X connect 2 0 8 0;
#X connect 3 0 5 0;
#X connect 4 0 6 0;
#X connect 7 0 1 0;
#X connect 8 0 10 0;
#X connect 9 0 12 0;
#X connect 10 0 11 0;
#X connect 11 0 3 1;
#X connect 12 0 13 0;
#X connect 13 0 4 1;
#X restore 1051 214 pd panning;
#X obj 21 330 tgl 25 0 \$0-mute_0_s \$0-mute_0_r empty 17 7 0 10 -262144
-1 -1 1 1;
#X obj 71 330 tgl 25 0 \$0-mute_1_s \$0-mute_1_r empty 17 7 0 10 -262144
-1 -1 1 1;
#X obj 121 330 tgl 25 0 \$0-mute_2_s \$0-mute_2_r empty 17 7 0 10 -262144
-1 -1 1 1;
#X obj 171 330 tgl 25 0 \$0-mute_3_s \$0-mute_3_r empty 17 7 0 10 -262144
-1 -1 1 1;
#X obj 221 330 tgl 25 0 \$0-mute_4_s \$0-mute_4_r empty 17 7 0 10 -262144
-1 -1 1 1;
#X obj 271 330 tgl 25 0 \$0-mute_5_s \$0-mute_5_r empty 17 7 0 10 -262144
-1 -1 1 1;
#X obj 321 330 tgl 25 0 \$0-mute_6_s \$0-mute_6_r empty 17 7 0 10 -262144
-1 -1 1 1;
#X obj 371 330 tgl 25 0 \$0-mute_7_s \$0-mute_7_r empty 17 7 0 10 -262144
-1 -1 1 1;
#X obj 421 330 tgl 25 0 \$0-mute_8_s \$0-mute_8_r empty 17 7 0 10 -262144
-1 -1 1 1;
#X obj 46 330 tgl 25 0 \$0-solo_0_s \$0-solo_0_r empty 17 7 0 10 -262144
-1 -1 0 1;
#X obj 96 330 tgl 25 0 \$0-solo_1_s \$0-solo_1_r empty 17 7 0 10 -262144
-1 -1 0 1;
#X obj 146 330 tgl 25 0 \$0-solo_2_s \$0-solo_2_r empty 17 7 0 10 -262144
-1 -1 0 1;
#X obj 196 330 tgl 25 0 \$0-solo_3_s \$0-solo_3_r empty 17 7 0 10 -262144
-1 -1 0 1;
#X obj 246 330 tgl 25 0 \$0-solo_4_s \$0-solo_4_r empty 17 7 0 10 -262144
-1 -1 0 1;
#X obj 296 330 tgl 25 0 \$0-solo_5_s \$0-solo_5_r empty 17 7 0 10 -262144
-1 -1 0 1;
#X obj 346 330 tgl 25 0 \$0-solo_6_s \$0-solo_6_r empty 17 7 0 10 -262144
-1 -1 0 1;
#X obj 396 330 tgl 25 0 \$0-solo_7_s \$0-solo_7_r empty 17 7 0 10 -262144
-1 -1 0 1;
#X obj 446 330 tgl 25 0 \$0-solo_8_s \$0-solo_8_r empty 17 7 0 10 -262144
-1 -1 0 1;
#N canvas 5 23 1275 751 soloMuteMechanics 0;
#X obj 51 31 r \$0-solo_0_s;
#X obj 51 133 ||, f 8;
#X obj 165 133 ||, f 8;
#X obj 285 133 ||, f 8;
#X obj 51 185 ||, f 27;
#X obj 285 185 ||, f 28;
#X obj 51 247 ||, f 44;
#X obj 69 54 r \$0-solo_1_s;
#X obj 165 31 r \$0-solo_2_s;
#X obj 183 54 r \$0-solo_3_s;
#X obj 285 31 r \$0-solo_4_s;
#X obj 303 54 r \$0-solo_5_s;
#X obj 405 133 ||, f 8;
#X obj 51 299 ||, f 82;
#X obj 405 31 r \$0-solo_6_s;
#X obj 423 54 r \$0-solo_7_s;
#X obj 513 31 r \$0-solo_8_s;
#X obj 183 106 t b f;
#X obj 69 106 t b f;
#X obj 303 106 t b f;
#X obj 423 106 t b f;
#X obj 513 263 t b f;
#X obj 165 155 t b f, f 8;
#X obj 405 155 t b f, f 8;
#X obj 285 207 t b f;
#X obj 42 360 r \$0-mute_0_s;
#X obj 42 446 s \$0-channel_0_active;
#X obj 139 360 r \$0-solo_0_s;
#X obj 264 360 r \$0-solo_on;
#X obj 51 321 s \$0-solo_on;
#X obj 139 382 t b f;
#X obj 264 382 t b f;
#X obj 42 424 expr if($f3 \, if($f2 \, 1 \, 0) \, if($f1 \, 0 \, 1))
;
#X obj 264 480 r \$0-solo_on;
#X obj 139 502 t b f;
#X obj 264 502 t b f;
#X obj 42 544 expr if($f3 \, if($f2 \, 1 \, 0) \, if($f1 \, 0 \, 1))
;
#X obj 42 480 r \$0-mute_1_s;
#X obj 139 480 r \$0-solo_1_s;
#X obj 42 566 s \$0-channel_1_active;
#X obj 264 600 r \$0-solo_on;
#X obj 139 622 t b f;
#X obj 264 622 t b f;
#X obj 42 664 expr if($f3 \, if($f2 \, 1 \, 0) \, if($f1 \, 0 \, 1))
;
#X obj 594 360 r \$0-solo_on;
#X obj 469 382 t b f;
#X obj 594 382 t b f;
#X obj 372 424 expr if($f3 \, if($f2 \, 1 \, 0) \, if($f1 \, 0 \, 1))
;
#X obj 42 600 r \$0-mute_2_s;
#X obj 139 600 r \$0-solo_2_s;
#X obj 42 686 s \$0-channel_2_active;
#X obj 372 360 r \$0-mute_3_s;
#X obj 469 360 r \$0-solo_3_s;
#X obj 372 446 s \$0-channel_3_active;
#X obj 594 480 r \$0-solo_on;
#X obj 469 502 t b f;
#X obj 594 502 t b f;
#X obj 372 544 expr if($f3 \, if($f2 \, 1 \, 0) \, if($f1 \, 0 \, 1))
;
#X obj 594 600 r \$0-solo_on;
#X obj 469 622 t b f;
#X obj 594 622 t b f;
#X obj 372 664 expr if($f3 \, if($f2 \, 1 \, 0) \, if($f1 \, 0 \, 1))
;
#X obj 372 480 r \$0-mute_4_s;
#X obj 469 480 r \$0-solo_4_s;
#X obj 372 566 s \$0-channel_4_active;
#X obj 372 600 r \$0-mute_5_s;
#X obj 469 600 r \$0-solo_5_s;
#X obj 372 686 s \$0-channel_5_active;
#X obj 924 360 r \$0-solo_on;
#X obj 799 382 t b f;
#X obj 924 382 t b f;
#X obj 702 424 expr if($f3 \, if($f2 \, 1 \, 0) \, if($f1 \, 0 \, 1))
;
#X obj 924 480 r \$0-solo_on;
#X obj 799 502 t b f;
#X obj 924 502 t b f;
#X obj 702 544 expr if($f3 \, if($f2 \, 1 \, 0) \, if($f1 \, 0 \, 1))
;
#X obj 924 600 r \$0-solo_on;
#X obj 799 622 t b f;
#X obj 924 622 t b f;
#X obj 702 664 expr if($f3 \, if($f2 \, 1 \, 0) \, if($f1 \, 0 \, 1))
;
#X obj 799 360 r \$0-solo_6_s;
#X obj 702 360 r \$0-mute_6_s;
#X obj 702 446 s \$0-channel_6_active;
#X obj 702 480 r \$0-mute_7_s;
#X obj 799 480 r \$0-solo_7_s;
#X obj 702 566 s \$0-channel_7_active;
#X obj 702 600 r \$0-mute_8_s;
#X obj 799 600 r \$0-solo_8_s;
#X obj 702 686 s \$0-channel_8_active;
#X connect 0 0 1 0;
#X connect 1 0 4 0;
#X connect 2 0 22 0;
#X connect 3 0 5 0;
#X connect 4 0 6 0;
#X connect 5 0 24 0;
#X connect 6 0 13 0;
#X connect 7 0 18 0;
#X connect 8 0 2 0;
#X connect 9 0 17 0;
#X connect 10 0 3 0;
#X connect 11 0 19 0;
#X connect 12 0 23 0;
#X connect 13 0 29 0;
#X connect 14 0 12 0;
#X connect 15 0 20 0;
#X connect 16 0 21 0;
#X connect 17 0 2 0;
#X connect 17 1 2 1;
#X connect 18 0 1 0;
#X connect 18 1 1 1;
#X connect 19 0 3 0;
#X connect 19 1 3 1;
#X connect 20 0 12 0;
#X connect 20 1 12 1;
#X connect 21 0 13 0;
#X connect 21 1 13 1;
#X connect 22 0 4 0;
#X connect 22 1 4 1;
#X connect 23 0 5 0;
#X connect 23 1 5 1;
#X connect 24 0 6 0;
#X connect 24 1 6 1;
#X connect 25 0 32 0;
#X connect 27 0 30 0;
#X connect 28 0 31 0;
#X connect 30 0 32 0;
#X connect 30 1 32 1;
#X connect 31 0 32 0;
#X connect 31 1 32 2;
#X connect 32 0 26 0;
#X connect 33 0 35 0;
#X connect 34 0 36 0;
#X connect 34 1 36 1;
#X connect 35 0 36 0;
#X connect 35 1 36 2;
#X connect 36 0 39 0;
#X connect 37 0 36 0;
#X connect 38 0 34 0;
#X connect 40 0 42 0;
#X connect 41 0 43 0;
#X connect 41 1 43 1;
#X connect 42 0 43 0;
#X connect 42 1 43 2;
#X connect 43 0 50 0;
#X connect 44 0 46 0;
#X connect 45 0 47 0;
#X connect 45 1 47 1;
#X connect 46 0 47 0;
#X connect 46 1 47 2;
#X connect 47 0 53 0;
#X connect 48 0 43 0;
#X connect 49 0 41 0;
#X connect 51 0 47 0;
#X connect 52 0 45 0;
#X connect 54 0 56 0;
#X connect 55 0 57 0;
#X connect 55 1 57 1;
#X connect 56 0 57 0;
#X connect 56 1 57 2;
#X connect 57 0 64 0;
#X connect 58 0 60 0;
#X connect 59 0 61 0;
#X connect 59 1 61 1;
#X connect 60 0 61 0;
#X connect 60 1 61 2;
#X connect 61 0 67 0;
#X connect 62 0 57 0;
#X connect 63 0 55 0;
#X connect 65 0 61 0;
#X connect 66 0 59 0;
#X connect 68 0 70 0;
#X connect 69 0 71 0;
#X connect 69 1 71 1;
#X connect 70 0 71 0;
#X connect 70 1 71 2;
#X connect 71 0 82 0;
#X connect 72 0 74 0;
#X connect 73 0 75 0;
#X connect 73 1 75 1;
#X connect 74 0 75 0;
#X connect 74 1 75 2;
#X connect 75 0 85 0;
#X connect 76 0 78 0;
#X connect 77 0 79 0;
#X connect 77 1 79 1;
#X connect 78 0 79 0;
#X connect 78 1 79 2;
#X connect 79 0 88 0;
#X connect 80 0 69 0;
#X connect 81 0 71 0;
#X connect 83 0 75 0;
#X connect 84 0 73 0;
#X connect 86 0 79 0;
#X connect 87 0 77 0;
#X restore 121 536 pd soloMuteMechanics;
#X text 466 367 panning (0-127);
#X text 478 337 mute/solo;
#X obj 752 519 outlet~;
#X obj 925 520 outlet~;
#X obj 1130 115 inlet;
#X obj 1311 115 inlet;
#X text 770 5 audio channels 1-9;
#X text 1090 95 korgNano buttons;
#X text 1300 95 korgNano pots;
#N canvas 99 387 1170 300 initialize 0;
#X obj 883 19 loadbang;
#X msg 37 35 64;
#X obj 37 56 t f f f f f f f f f, f 27;
#X obj 37 257 s \$0-fade_0_r;
#X obj 56 237 s \$0-fade_1_r;
#X obj 76 217 s \$0-fade_2_r;
#X obj 96 197 s \$0-fade_3_r;
#X obj 116 177 s \$0-fade_4_r;
#X obj 136 157 s \$0-fade_5_r;
#X obj 156 137 s \$0-fade_6_r;
#X obj 176 117 s \$0-fade_7_r;
#X obj 196 97 s \$0-fade_8_r;
#X obj 287 56 t f f f f f f f f f, f 27;
#X obj 537 56 t f f f f f f f f f, f 27;
#X obj 446 97 s \$0-mute_8_r;
#X obj 426 117 s \$0-mute_7_r;
#X obj 406 137 s \$0-mute_6_r;
#X obj 386 157 s \$0-mute_5_r;
#X obj 366 177 s \$0-mute_4_r;
#X obj 346 197 s \$0-mute_3_r;
#X obj 326 217 s \$0-mute_2_r;
#X obj 306 237 s \$0-mute_1_r;
#X obj 287 257 s \$0-mute_0_r;
#X msg 287 35 1;
#X obj 696 97 s \$0-solo_8_r;
#X obj 676 117 s \$0-solo_7_r;
#X obj 656 137 s \$0-solo_6_r;
#X obj 636 157 s \$0-solo_5_r;
#X obj 616 177 s \$0-solo_4_r;
#X obj 596 197 s \$0-solo_3_r;
#X obj 576 217 s \$0-solo_2_r;
#X obj 556 237 s \$0-solo_1_r;
#X obj 537 257 s \$0-solo_0_r;
#X msg 537 35 0;
#X obj 787 56 t f f f f f f f f f, f 27;
#X msg 787 35 64;
#X obj 946 97 s \$0-knob_8_r;
#X obj 926 117 s \$0-knob_7_r;
#X obj 906 137 s \$0-knob_6_r;
#X obj 886 157 s \$0-knob_5_r;
#X obj 866 177 s \$0-knob_4_r;
#X obj 846 197 s \$0-knob_3_r;
#X obj 826 217 s \$0-knob_2_r;
#X obj 806 237 s \$0-knob_1_r;
#X obj 787 257 s \$0-knob_0_r;
#X connect 0 0 1 0;
#X connect 0 0 33 0;
#X connect 0 0 23 0;
#X connect 0 0 35 0;
#X connect 1 0 2 0;
#X connect 2 0 3 0;
#X connect 2 1 4 0;
#X connect 2 2 5 0;
#X connect 2 3 6 0;
#X connect 2 4 7 0;
#X connect 2 5 8 0;
#X connect 2 6 9 0;
#X connect 2 7 10 0;
#X connect 2 8 11 0;
#X connect 12 0 22 0;
#X connect 12 1 21 0;
#X connect 12 2 20 0;
#X connect 12 3 19 0;
#X connect 12 4 18 0;
#X connect 12 5 17 0;
#X connect 12 6 16 0;
#X connect 12 7 15 0;
#X connect 12 8 14 0;
#X connect 13 0 32 0;
#X connect 13 1 31 0;
#X connect 13 2 30 0;
#X connect 13 3 29 0;
#X connect 13 4 28 0;
#X connect 13 5 27 0;
#X connect 13 6 26 0;
#X connect 13 7 25 0;
#X connect 13 8 24 0;
#X connect 23 0 12 0;
#X connect 33 0 13 0;
#X connect 34 0 44 0;
#X connect 34 1 43 0;
#X connect 34 2 42 0;
#X connect 34 3 41 0;
#X connect 34 4 40 0;
#X connect 34 5 39 0;
#X connect 34 6 38 0;
#X connect 34 7 37 0;
#X connect 34 8 36 0;
#X connect 35 0 34 0;
#X restore 121 565 pd initialize;
#N canvas 68 23 450 300 mixFader 0;
#X obj 119 35 inlet~;
#X obj 119 227 *~;
#X obj 119 249 outlet~;
#X obj 134 81 / 127;
#X obj 134 103 pow 4;
#X obj 134 205 line~;
#X msg 134 184 \$1 20;
#X obj 141 145 t b f;
#X obj 134 164 *, f 4;
#X obj 134 59 r \$0-fade_4_s;
#X obj 141 124 r \$0-channel_4_active;
#X connect 0 0 1 0;
#X connect 1 0 2 0;
#X connect 3 0 4 0;
#X connect 4 0 8 0;
#X connect 5 0 1 1;
#X connect 6 0 5 0;
#X connect 7 0 8 0;
#X connect 7 1 8 1;
#X connect 8 0 6 0;
#X connect 9 0 3 0;
#X connect 10 0 7 0;
#X restore 811 164 pd mixFader;
#N canvas 0 23 450 300 mixFader 0;
#X obj 129 35 inlet~;
#X obj 129 227 *~;
#X obj 129 249 outlet~;
#X obj 144 81 / 127;
#X obj 144 103 pow 4;
#X obj 144 205 line~;
#X msg 144 184 \$1 20;
#X obj 151 145 t b f;
#X obj 144 164 *, f 4;
#X obj 144 59 r \$0-fade_5_s;
#X obj 151 124 r \$0-channel_5_active;
#X connect 0 0 1 0;
#X connect 1 0 2 0;
#X connect 3 0 4 0;
#X connect 4 0 8 0;
#X connect 5 0 1 1;
#X connect 6 0 5 0;
#X connect 7 0 8 0;
#X connect 7 1 8 1;
#X connect 8 0 6 0;
#X connect 9 0 3 0;
#X connect 10 0 7 0;
#X restore 871 144 pd mixFader;
#N canvas 0 23 450 300 mixFader 0;
#X obj 119 35 inlet~;
#X obj 119 227 *~;
#X obj 119 249 outlet~;
#X obj 134 81 / 127;
#X obj 134 103 pow 4;
#X obj 134 205 line~;
#X msg 134 184 \$1 20;
#X obj 141 145 t b f;
#X obj 134 164 *, f 4;
#X obj 134 59 r \$0-fade_6_s;
#X obj 141 124 r \$0-channel_6_active;
#X connect 0 0 1 0;
#X connect 1 0 2 0;
#X connect 3 0 4 0;
#X connect 4 0 8 0;
#X connect 5 0 1 1;
#X connect 6 0 5 0;
#X connect 7 0 8 0;
#X connect 7 1 8 1;
#X connect 8 0 6 0;
#X connect 9 0 3 0;
#X connect 10 0 7 0;
#X restore 931 164 pd mixFader;
#N canvas 0 23 450 300 mixFader 0;
#X obj 119 35 inlet~;
#X obj 119 249 outlet~;
#X obj 119 227 *~;
#X obj 134 81 / 127;
#X obj 134 103 pow 4;
#X obj 134 205 line~;
#X msg 134 184 \$1 20;
#X obj 141 145 t b f;
#X obj 134 164 *, f 4;
#X obj 134 59 r \$0-fade_7_s;
#X obj 141 124 r \$0-channel_7_active;
#X connect 0 0 2 0;
#X connect 2 0 1 0;
#X connect 3 0 4 0;
#X connect 4 0 8 0;
#X connect 5 0 2 1;
#X connect 6 0 5 0;
#X connect 7 0 8 0;
#X connect 7 1 8 1;
#X connect 8 0 6 0;
#X connect 9 0 3 0;
#X connect 10 0 7 0;
#X restore 991 144 pd mixFader;
#N canvas 727 405 450 300 mixFader 0;
#X obj 119 35 inlet~;
#X obj 119 227 *~;
#X obj 119 249 outlet~;
#X obj 134 81 / 127;
#X obj 134 103 pow 4;
#X obj 134 205 line~;
#X msg 134 184 \$1 20;
#X obj 141 145 t b f;
#X obj 134 164 *, f 4;
#X obj 134 59 r \$0-fade_8_s;
#X obj 141 124 r \$0-channel_8_active;
#X connect 0 0 1 0;
#X connect 1 0 2 0;
#X connect 3 0 4 0;
#X connect 4 0 8 0;
#X connect 5 0 1 1;
#X connect 6 0 5 0;
#X connect 7 0 8 0;
#X connect 7 1 8 1;
#X connect 8 0 6 0;
#X connect 9 0 3 0;
#X connect 10 0 7 0;
#X restore 1051 164 pd mixFader;
#X obj 1130 136 ./headless/korgnano9x2mixercontrol;
#X text 118 35 9x2 mixer with solo and muting mechanics;
#X connect 9 0 20 0;
#X connect 9 0 38 0;
#X connect 21 0 22 0;
#X connect 21 0 40 0;
#X connect 23 0 24 0;
#X connect 23 0 42 0;
#X connect 25 0 26 0;
#X connect 25 0 47 0;
#X connect 27 0 28 0;
#X connect 27 0 79 0;
#X connect 29 0 30 0;
#X connect 29 0 80 0;
#X connect 31 0 32 0;
#X connect 31 0 81 0;
#X connect 33 0 34 0;
#X connect 33 0 82 0;
#X connect 35 0 36 0;
#X connect 35 0 83 0;
#X connect 37 0 71 0;
#X connect 37 1 72 0;
#X connect 38 0 37 0;
#X connect 39 0 71 0;
#X connect 39 1 72 0;
#X connect 40 0 39 0;
#X connect 41 0 71 0;
#X connect 41 1 72 0;
#X connect 42 0 41 0;
#X connect 43 0 71 0;
#X connect 43 1 72 0;
#X connect 44 0 71 0;
#X connect 44 1 72 0;
#X connect 45 0 71 0;
#X connect 45 1 72 0;
#X connect 46 0 71 0;
#X connect 46 1 72 0;
#X connect 47 0 46 0;
#X connect 48 0 71 0;
#X connect 48 1 72 0;
#X connect 49 0 71 0;
#X connect 49 1 72 0;
#X connect 73 0 84 0;
#X connect 74 0 84 1;
#X connect 79 0 48 0;
#X connect 80 0 43 0;
#X connect 81 0 44 0;
#X connect 82 0 45 0;
#X connect 83 0 49 0;
#X coords 0 -1 1 1 550 300 2 10 100;
