#N canvas 0 23 1274 839 10;
#X obj 903 139 inlet~;
#N canvas 0 22 450 278 (subpatch) 0;
#X array \$0-signal_0 512 float 0;
#X array \$0-signal_1 512 float 0;
#X coords 0 1 512 -1 512 440 1 0 0;
#X restore 100 126 graph;
#X obj 903 299 tabwrite~ \$0-signal_0;
#X obj 1043 299 tabwrite~ \$0-signal_1;
#X obj 975 270 t b b;
#X obj 704 254 metro, f 15;
#X obj 108 579 tgl 24 0 \$0-on_off_s \$0-on_off_r empty 17 7 0 10 -262144
-1 -1 1 1;
#X floatatom 138 583 10 0 0 0 - #0-frequency_r #0-frequency_s, f 10
;
#X obj 791 143 r \$0-frequency_s;
#X obj 704 143 r \$0-on_off_s;
#X obj 903 250 *~;
#X obj 918 164 r \$0-levels_0_s;
#X obj 918 185 pow 4;
#X msg 918 206 \$1 20;
#X obj 918 227 line~;
#X obj 1043 139 inlet~;
#X obj 1043 250 *~;
#X obj 1058 185 pow 4;
#X msg 1058 206 \$1 20;
#X obj 1058 227 line~;
#X obj 1058 164 r \$0-levels_1_s;
#N canvas 0 23 571 300 initialize 0;
#X obj 407 63 loadbang;
#X obj 67 100 s \$0-on_off_r;
#X obj 157 100 s \$0-frequency_r;
#X msg 267 79 1;
#X obj 267 100 s \$0-levels_0_r;
#X msg 367 79 1;
#X obj 367 100 s \$0-levels_1_r;
#X msg 157 79 10;
#X msg 67 79 1;
#X connect 0 0 8 0;
#X connect 0 0 3 0;
#X connect 0 0 7 0;
#X connect 0 0 5 0;
#X connect 3 0 4 0;
#X connect 5 0 6 0;
#X connect 7 0 2 0;
#X connect 8 0 1 0;
#X restore 723 409 pd initialize;
#X obj 791 164 expr 1000/$f1;
#X text 204 583 Hz;
#X text 350 576 signal 0;
#X text 350 590 signal 1;
#X text 264 583 levels x[0 \, 2];
#X obj 501 573 cnv 8 8 36 empty empty empty 20 12 0 14 -191407 -66577
0;
#X obj 405 576 hsl 200 15 0 2 0 0 \$0-levels_0_s \$0-levels_0_r empty
-2 -8 0 10 -262144 -1 -1 13300 1;
#X obj 405 591 hsl 200 15 0 2 0 0 \$0-levels_1_s \$0-levels_1_r empty
-2 -8 0 10 -262144 -1 -1 9950 1;
#X connect 0 0 10 0;
#X connect 4 0 2 0;
#X connect 4 1 3 0;
#X connect 5 0 4 0;
#X connect 8 0 22 0;
#X connect 9 0 5 0;
#X connect 10 0 2 0;
#X connect 11 0 12 0;
#X connect 12 0 13 0;
#X connect 13 0 14 0;
#X connect 14 0 10 1;
#X connect 15 0 16 0;
#X connect 16 0 3 0;
#X connect 17 0 18 0;
#X connect 18 0 19 0;
#X connect 19 0 16 1;
#X connect 20 0 17 0;
#X connect 22 0 5 1;
#X coords 0 -1 1 1 512 512 2 100 100;
