#N canvas 104 390 992 446 10;
#X obj 597 35 inlet~;
#N canvas 0 22 450 278 (subpatch) 0;
#X array \$0-signal_0 258 float 0;
#X array \$0-signal_1 256 float 0;
#X coords 0 1 256 -1 256 200 1 0 0;
#X restore 100 126 graph;
#X obj 597 195 tabwrite~ \$0-signal_0;
#X obj 737 195 tabwrite~ \$0-signal_1;
#X obj 669 166 t b b;
#X obj 398 150 metro, f 15;
#X obj 103 329 tgl 24 0 \$0-on_off_s \$0-on_off_r empty 17 7 0 10 -262144
-1 -1 1 1;
#X floatatom 133 333 10 0 0 0 - #0-frequency_r #0-frequency_s, f 10
;
#X obj 485 39 r \$0-frequency_s;
#X obj 398 39 r \$0-on_off_s;
#X obj 597 146 *~;
#X obj 612 60 r \$0-levels_0_s;
#X obj 612 81 pow 4;
#X msg 612 102 \$1 20;
#X obj 612 123 line~;
#X obj 737 35 inlet~;
#X obj 737 146 *~;
#X obj 752 81 pow 4;
#X msg 752 102 \$1 20;
#X obj 752 123 line~;
#X obj 752 60 r \$0-levels_1_s;
#N canvas 0 23 571 300 initialize 0;
#X obj 407 63 loadbang;
#X obj 67 100 s \$0-on_off_r;
#X obj 157 100 s \$0-frequency_r;
#X msg 267 79 1;
#X obj 267 100 s \$0-levels_0_r;
#X msg 367 79 1;
#X obj 367 100 s \$0-levels_1_r;
#X msg 157 79 10;
#X msg 67 79 1;
#X connect 0 0 8 0;
#X connect 0 0 3 0;
#X connect 0 0 7 0;
#X connect 0 0 5 0;
#X connect 3 0 4 0;
#X connect 5 0 6 0;
#X connect 7 0 2 0;
#X connect 8 0 1 0;
#X restore 417 305 pd initialize;
#X obj 485 60 expr 1000/$f1;
#X text 199 333 Hz;
#X obj 234 326 hsl 120 15 0 2 0 0 \$0-levels_0_s \$0-levels_0_r empty
-2 -8 0 10 -262144 -1 -1 6300 1;
#X obj 234 341 hsl 120 15 0 2 0 0 \$0-levels_1_s \$0-levels_1_r empty
-2 -8 0 10 -262144 -1 -1 7750 1;
#X obj 290 337 cnv 8 8 8 empty empty empty 20 12 0 14 -66577 -66577
0;
#X connect 0 0 10 0;
#X connect 4 0 2 0;
#X connect 4 1 3 0;
#X connect 5 0 4 0;
#X connect 8 0 22 0;
#X connect 9 0 5 0;
#X connect 10 0 2 0;
#X connect 11 0 12 0;
#X connect 12 0 13 0;
#X connect 13 0 14 0;
#X connect 14 0 10 1;
#X connect 15 0 16 0;
#X connect 16 0 3 0;
#X connect 17 0 18 0;
#X connect 18 0 19 0;
#X connect 19 0 16 1;
#X connect 20 0 17 0;
#X connect 22 0 5 1;
#X coords 0 -1 1 1 256 256 2 100 100;
