#N canvas 0 25 694 762 10;
#X obj 74 340 inlet~;
#X obj 108 360 inlet~;
#X text 200 100 LEFT~;
#X text 370 100 RIGHT~;
#X text 261 149 to file;
#X text 261 137 write;
#X text 261 125 record/;
#X obj 318 124 bng 40 250 50 0 \$0-open_dialog_s \$0-open_dialog_r
empty 17 7 0 10 -262144 -1 -1;
#X text 364 124 open;
#X text 364 136 new;
#X text 364 148 file;
#X obj 41 420 ./headless/recordstereo;
#X obj 142 380 r \$0-open_dialog_s;
#X text 82 242 GUI wrapper for ustudio/headless/recordstereo;
#X obj 218 124 bng 40 250 50 0 \$0-record_button_s \$0-record_button_r
empty 17 7 0 10 -262144 -1 -1;
#X obj 41 319 r \$0-record_button_s;
#X obj 218 124 cnv 15 40 40 \$0-record_button_canv_s \$0-record_button_canv_r
empty 20 12 0 14 -233017 -66577 0;
#X obj 41 441 route 0 1;
#X obj 219 523 f \$0;
#X obj 219 503 loadbang;
#X obj 41 519 uutil/headless/rgbtopdcolour;
#X obj 41 539 pack f f;
#X msg 41 561 \; \$2-record_button_canv_r color \$1;
#X msg 41 498 225 225 225;
#X text 120 498 panel grey;
#X text 150 478 panel red;
#X msg 66 477 225 80 80;
#X connect 0 0 11 1;
#X connect 1 0 11 2;
#X connect 11 0 17 0;
#X connect 12 0 11 3;
#X connect 15 0 11 0;
#X connect 17 0 23 0;
#X connect 17 1 26 0;
#X connect 18 0 21 1;
#X connect 19 0 18 0;
#X connect 20 0 21 0;
#X connect 21 0 22 0;
#X connect 23 0 20 0;
#X connect 26 0 20 0;
#X coords 0 -1 1 1 210 80 2 200 100;
